<svg width="40" height="40" viewBox="0 0 40 40" fill="none" xmlns="http://www.w3.org/2000/svg">
<g clip-path="url(#clip0_1_106)">
<path d="M20 3.33331C23.7572 3.33331 27.3606 4.82587 30.0173 7.48263C32.6741 10.1394 34.1667 13.7427 34.1667 17.5C34.1667 28.3333 25 37.5 20 37.5C15 37.5 5.83333 28.3333 5.83333 17.5C5.83333 13.7427 7.32588 10.1394 9.98265 7.48263C12.6394 4.82587 16.2428 3.33331 20 3.33331V3.33331ZM20 6.66665C17.1268 6.66665 14.3713 7.80801 12.3397 9.83966C10.308 11.8713 9.16666 14.6268 9.16666 17.5C9.16666 25.49 16.1083 34.1666 20 34.1666C23.8917 34.1666 30.8333 25.49 30.8333 17.5C30.8333 14.6268 29.692 11.8713 27.6603 9.83966C25.6287 7.80801 22.8732 6.66665 20 6.66665V6.66665ZM29.1667 18.3333C29.4333 18.3333 29.6983 18.3466 29.9583 18.375C30.0764 19.4873 29.9442 20.612 29.5714 21.6667C29.1986 22.7213 28.5945 23.6792 27.8036 24.4702C27.0126 25.2612 26.0547 25.8652 25 26.2381C23.9454 26.6109 22.8207 26.7431 21.7083 26.625C21.5973 25.5791 21.7075 24.5216 22.0317 23.5212C22.356 22.5207 22.887 21.5996 23.5903 20.8176C24.2937 20.0357 25.1536 19.4104 26.1143 18.9824C27.075 18.5544 28.1149 18.3333 29.1667 18.3333V18.3333ZM10.8333 18.3333C11.885 18.3333 12.925 18.5544 13.8857 18.9824C14.8464 19.4104 15.7063 20.0357 16.4097 20.8176C17.113 21.5996 17.644 22.5207 17.9683 23.5212C18.2925 24.5216 18.4027 25.5791 18.2917 26.625C17.1793 26.7431 16.0546 26.6109 15 26.2381C13.9453 25.8652 12.9874 25.2612 12.1964 24.4702C11.4055 23.6792 10.8014 22.7213 10.4286 21.6667C10.0558 20.612 9.92355 19.4873 10.0417 18.375C10.3 18.3466 10.5667 18.3333 10.8333 18.3333Z" fill="#0B0914"/>
</g>
<defs>
<clipPath id="clip0_1_106">
<rect width="40" height="40" fill="white"/>
</clipPath>
</defs>
</svg>
