<svg width="40" height="40" viewBox="0 0 40 40" xmlns="http://www.w3.org/2000/svg">
<g clip-path="url(#clip0_1_102)">
<path d="M20 3.33331C29.205 3.33331 36.6667 10.795 36.6667 20V26.2733C36.6666 26.8925 36.4942 27.4994 36.1686 28.026C35.843 28.5527 35.3772 28.9782 34.8233 29.255L30 31.6666V33.3333C30.0001 34.6087 29.5128 35.8358 28.6379 36.7637C27.7629 37.6917 26.5665 38.2502 25.2933 38.325L24.9167 38.3333C24.9533 38.1518 24.9778 37.9681 24.99 37.7833L25 37.5V36.6666C25.0003 35.8257 24.6827 35.0157 24.1108 34.3991C23.539 33.7824 22.7553 33.4047 21.9167 33.3416L21.6667 33.3333H18.3333C17.4924 33.333 16.6824 33.6507 16.0657 34.2225C15.4491 34.7943 15.0714 35.5781 15.0083 36.4166L15 36.6666V37.5C15 37.785 15.0283 38.065 15.0833 38.3333H15C13.6739 38.3333 12.4021 37.8065 11.4645 36.8688C10.5268 35.9312 10 34.6594 10 33.3333V31.6666L5.17666 29.255C4.62255 28.9781 4.15656 28.5523 3.83096 28.0253C3.50536 27.4984 3.33304 26.8911 3.33333 26.2716V20C3.33333 10.795 10.795 3.33331 20 3.33331ZM20 6.66665C16.536 6.66669 13.2079 8.01487 10.7205 10.4258C8.23307 12.8367 6.78158 16.121 6.67333 19.5833L6.66666 20V26.2733L13.3333 29.6066V32.2583L13.4583 32.1183C14.6388 30.8511 16.2669 30.0942 17.9967 30.0083L18.3333 30L21.7883 30.0016L22.16 30.0183C23.825 30.1416 25.31 30.8683 26.41 31.98L26.6667 32.2583V29.6066L33.3333 26.2733V20C33.3333 16.4638 31.9286 13.0724 29.4281 10.5719C26.9276 8.0714 23.5362 6.66665 20 6.66665V6.66665ZM13.3333 18.3333C14.2174 18.3333 15.0652 18.6845 15.6904 19.3096C16.3155 19.9347 16.6667 20.7826 16.6667 21.6666C16.6667 22.5507 16.3155 23.3985 15.6904 24.0237C15.0652 24.6488 14.2174 25 13.3333 25C12.4493 25 11.6014 24.6488 10.9763 24.0237C10.3512 23.3985 10 22.5507 10 21.6666C10 20.7826 10.3512 19.9347 10.9763 19.3096C11.6014 18.6845 12.4493 18.3333 13.3333 18.3333V18.3333ZM26.6667 18.3333C27.5507 18.3333 28.3986 18.6845 29.0237 19.3096C29.6488 19.9347 30 20.7826 30 21.6666C30 22.5507 29.6488 23.3985 29.0237 24.0237C28.3986 24.6488 27.5507 25 26.6667 25C25.7826 25 24.9348 24.6488 24.3096 24.0237C23.6845 23.3985 23.3333 22.5507 23.3333 21.6666C23.3333 20.7826 23.6845 19.9347 24.3096 19.3096C24.9348 18.6845 25.7826 18.3333 26.6667 18.3333V18.3333Z" />
</g>
<defs>
<clipPath id="clip0_1_102">
<rect width="40" height="40" />
</clipPath>
</defs>
</svg>
