<svg width="0" height="0" class="hidden">
  <symbol xmlns="http://www.w3.org/2000/svg" viewBox="0 0 40 40" id="skull">
    <g clip-path="url(#clip0_1_102)">
      <path d="M20 3.33331C29.205 3.33331 36.6667 10.795 36.6667 20V26.2733C36.6666 26.8925 36.4942 27.4994 36.1686 28.026C35.843 28.5527 35.3772 28.9782 34.8233 29.255L30 31.6666V33.3333C30.0001 34.6087 29.5128 35.8358 28.6379 36.7637C27.7629 37.6917 26.5665 38.2502 25.2933 38.325L24.9167 38.3333C24.9533 38.1518 24.9778 37.9681 24.99 37.7833L25 37.5V36.6666C25.0003 35.8257 24.6827 35.0157 24.1108 34.3991C23.539 33.7824 22.7553 33.4047 21.9167 33.3416L21.6667 33.3333H18.3333C17.4924 33.333 16.6824 33.6507 16.0657 34.2225C15.4491 34.7943 15.0714 35.5781 15.0083 36.4166L15 36.6666V37.5C15 37.785 15.0283 38.065 15.0833 38.3333H15C13.6739 38.3333 12.4021 37.8065 11.4645 36.8688C10.5268 35.9312 10 34.6594 10 33.3333V31.6666L5.17666 29.255C4.62255 28.9781 4.15656 28.5523 3.83096 28.0253C3.50536 27.4984 3.33304 26.8911 3.33333 26.2716V20C3.33333 10.795 10.795 3.33331 20 3.33331ZM20 6.66665C16.536 6.66669 13.2079 8.01487 10.7205 10.4258C8.23307 12.8367 6.78158 16.121 6.67333 19.5833L6.66666 20V26.2733L13.3333 29.6066V32.2583L13.4583 32.1183C14.6388 30.8511 16.2669 30.0942 17.9967 30.0083L18.3333 30L21.7883 30.0016L22.16 30.0183C23.825 30.1416 25.31 30.8683 26.41 31.98L26.6667 32.2583V29.6066L33.3333 26.2733V20C33.3333 16.4638 31.9286 13.0724 29.4281 10.5719C26.9276 8.0714 23.5362 6.66665 20 6.66665V6.66665ZM13.3333 18.3333C14.2174 18.3333 15.0652 18.6845 15.6904 19.3096C16.3155 19.9347 16.6667 20.7826 16.6667 21.6666C16.6667 22.5507 16.3155 23.3985 15.6904 24.0237C15.0652 24.6488 14.2174 25 13.3333 25C12.4493 25 11.6014 24.6488 10.9763 24.0237C10.3512 23.3985 10 22.5507 10 21.6666C10 20.7826 10.3512 19.9347 10.9763 19.3096C11.6014 18.6845 12.4493 18.3333 13.3333 18.3333V18.3333ZM26.6667 18.3333C27.5507 18.3333 28.3986 18.6845 29.0237 19.3096C29.6488 19.9347 30 20.7826 30 21.6666C30 22.5507 29.6488 23.3985 29.0237 24.0237C28.3986 24.6488 27.5507 25 26.6667 25C25.7826 25 24.9348 24.6488 24.3096 24.0237C23.6845 23.3985 23.3333 22.5507 23.3333 21.6666C23.3333 20.7826 23.6845 19.9347 24.3096 19.3096C24.9348 18.6845 25.7826 18.3333 26.6667 18.3333V18.3333Z"></path>
    </g>
    <defs>
      <clipPath id="clip0_1_102">
        <rect width="40" height="40"></rect>
      </clipPath>
    </defs>
  </symbol>
  <symbol  xmlns="http://www.w3.org/2000/svg" viewBox="0 0 24 24" id="check">
    <path d="M12.0001 2.00012C6.48608 2.00012 2.00008 6.48612 2.00008 12.0001C2.00008 17.5141 6.48608 22.0001 12.0001 22.0001C17.5141 22.0001 22.0001 17.5141 22.0001 12.0001C22.0001 6.48612 17.5141 2.00012 12.0001 2.00012ZM10.0011 16.4131L6.28808 12.7081L7.70008 11.2921L9.99908 13.5871L15.2931 8.29312L16.7071 9.70712L10.0011 16.4131Z" ></path>
  </symbol>
  <symbol  xmlns="http://www.w3.org/2000/svg" viewBox="0 0 40 40" id="alien">
    <g clip-path="url(#clip0_1_106)">
      <path d="M20 3.33331C23.7572 3.33331 27.3606 4.82587 30.0173 7.48263C32.6741 10.1394 34.1667 13.7427 34.1667 17.5C34.1667 28.3333 25 37.5 20 37.5C15 37.5 5.83333 28.3333 5.83333 17.5C5.83333 13.7427 7.32588 10.1394 9.98265 7.48263C12.6394 4.82587 16.2428 3.33331 20 3.33331V3.33331ZM20 6.66665C17.1268 6.66665 14.3713 7.80801 12.3397 9.83966C10.308 11.8713 9.16666 14.6268 9.16666 17.5C9.16666 25.49 16.1083 34.1666 20 34.1666C23.8917 34.1666 30.8333 25.49 30.8333 17.5C30.8333 14.6268 29.692 11.8713 27.6603 9.83966C25.6287 7.80801 22.8732 6.66665 20 6.66665V6.66665ZM29.1667 18.3333C29.4333 18.3333 29.6983 18.3466 29.9583 18.375C30.0764 19.4873 29.9442 20.612 29.5714 21.6667C29.1986 22.7213 28.5945 23.6792 27.8036 24.4702C27.0126 25.2612 26.0547 25.8652 25 26.2381C23.9454 26.6109 22.8207 26.7431 21.7083 26.625C21.5973 25.5791 21.7075 24.5216 22.0317 23.5212C22.356 22.5207 22.887 21.5996 23.5903 20.8176C24.2937 20.0357 25.1536 19.4104 26.1143 18.9824C27.075 18.5544 28.1149 18.3333 29.1667 18.3333V18.3333ZM10.8333 18.3333C11.885 18.3333 12.925 18.5544 13.8857 18.9824C14.8464 19.4104 15.7063 20.0357 16.4097 20.8176C17.113 21.5996 17.644 22.5207 17.9683 23.5212C18.2925 24.5216 18.4027 25.5791 18.2917 26.625C17.1793 26.7431 16.0546 26.6109 15 26.2381C13.9453 25.8652 12.9874 25.2612 12.1964 24.4702C11.4055 23.6792 10.8014 22.7213 10.4286 21.6667C10.0558 20.612 9.92355 19.4873 10.0417 18.375C10.3 18.3466 10.5667 18.3333 10.8333 18.3333Z"></path>
    </g>
    <defs>
      <clipPath id="clip0_1_106">
        <rect width="40" height="40" ></rect>
      </clipPath>
    </defs>
  </symbol>
</svg>